<svg id="Layer_1" data-name="Layer 1" xmlns="http://www.w3.org/2000/svg" viewBox="0 0 200.51 135.38"><defs><style>.cls-1{fill:#fff;}</style></defs><path id="Path_8" data-name="Path 8" class="cls-1" d="M90.6,63H106a1.68,1.68,0,0,1,0,3.35H90.6a1.68,1.68,0,0,1,0-3.35Zm0-6.69H106a1.68,1.68,0,0,1,0,3.35H90.6a1.68,1.68,0,0,1,0-3.35Zm0,13.38h9.25a1.68,1.68,0,0,1,0,3.35H90.6a1.68,1.68,0,0,1,0-3.35Zm13.87,1.47v7.08a.77.77,0,0,0,.72.83.83.83,0,0,0,.46-.11l5.44-3.55a.87.87,0,0,0,.2-1.23.8.8,0,0,0-.2-.21l-5.44-3.54a.8.8,0,0,0-1.08.29A.86.86,0,0,0,104.47,71.16Z"/></svg>