<?xml version="1.0" encoding="utf-8"?>
<!-- Generator: Adobe Illustrator 16.0.0, SVG Export Plug-In . SVG Version: 6.00 Build 0)  -->
<!DOCTYPE svg PUBLIC "-//W3C//DTD SVG 1.1//EN" "http://www.w3.org/Graphics/SVG/1.1/DTD/svg11.dtd">
<svg version="1.1" id="Layer_1" xmlns="http://www.w3.org/2000/svg" xmlns:xlink="http://www.w3.org/1999/xlink" x="0px" y="0px"
	 width="300px" height="300px" viewBox="0 0 300 300" enable-background="new 0 0 300 300" xml:space="preserve">
<g>
	
		<image overflow="visible" opacity="0.5" width="430" height="430" xlink:href="9929F91602B6E31.png"  transform="matrix(1 0 0 1 -60.5312 -67.5312)">
	</image>
	<g>
		<g>
			
				<image overflow="visible" opacity="0.5" enable-background="new    " width="1246" height="1246" xlink:href="9929F91602B6E36.png"  transform="matrix(0.2392 0 0 0.2392 1.5957 0.7031)">
			</image>
			<g>
				<path fill="#077786" d="M229.77,273.764h-31.258v-98.98h33.047l4.883-36.47h-37.93v-23.28c0-10.909,4.559-18.233,20.188-18.233
					l21.489-0.162v-33.7c-5.213-0.489-15.631-1.466-29.309-1.466c-28.811,0-48.836,17.583-48.836,49.817v27.023h-36.468v36.47
					h36.468v98.979H73.482c-25.886,0-46.886-21.002-46.886-46.885V70.589c0-25.885,21-46.886,46.886-46.886H229.77
					c25.883,0,46.885,21.001,46.885,46.886v156.289C276.654,252.761,255.652,273.764,229.77,273.764z"/>
			</g>
		</g>
	</g>
</g>
</svg>
