<?xml version="1.0" encoding="utf-8"?>
<!-- Generator: Adobe Illustrator 16.0.0, SVG Export Plug-In . SVG Version: 6.00 Build 0)  -->
<!DOCTYPE svg PUBLIC "-//W3C//DTD SVG 1.1//EN" "http://www.w3.org/Graphics/SVG/1.1/DTD/svg11.dtd">
<svg version="1.1" id="Layer_1" xmlns="http://www.w3.org/2000/svg" xmlns:xlink="http://www.w3.org/1999/xlink" x="0px" y="0px"
	 width="300px" height="300px" viewBox="0 0 300 300" enable-background="new 0 0 300 300" xml:space="preserve">
<path fill="#077786" d="M243.987,300.758h-37.595V181.709h39.747l5.874-43.862h-45.621v-28c0-13.12,5.482-21.931,24.28-21.931
	l25.847-0.194V47.19c-6.268-0.588-18.798-1.763-35.25-1.763c-34.652,0-58.736,21.147-58.736,59.917v32.502H118.67v43.862h43.863
	v119.049H56.013c-31.135,0-56.392-25.259-56.392-56.392V56.392C-0.379,25.259,24.878,0,56.013,0h187.974
	c31.133,0,56.392,25.259,56.392,56.392v187.974C300.379,275.499,275.12,300.758,243.987,300.758z"/>
</svg>
