<?xml version="1.0" encoding="utf-8"?>
<!-- Generator: Adobe Illustrator 16.0.0, SVG Export Plug-In . SVG Version: 6.00 Build 0)  -->
<!DOCTYPE svg PUBLIC "-//W3C//DTD SVG 1.1//EN" "http://www.w3.org/Graphics/SVG/1.1/DTD/svg11.dtd">
<svg version="1.1" id="Layer_1" xmlns="http://www.w3.org/2000/svg" xmlns:xlink="http://www.w3.org/1999/xlink" x="0px" y="0px"
	 width="300px" height="300px" viewBox="0 0 300 300" enable-background="new 0 0 300 300" xml:space="preserve">
<g>
	
		<image overflow="visible" opacity="0.75" width="269" height="270" xlink:href="5A0CF1757808A5B5.png"  transform="matrix(1 0 0 1 43.9961 20.9961)">
	</image>
	<g>
		<path fill="#007685" d="M277.521,242.915c0,17.617-14.488,32.136-32.064,32.136H59.567c-17.58,0-32.067-14.519-32.067-32.136
			V56.632C27.5,39.019,41.987,24.5,59.567,24.5h185.89c17.576,0,32.064,14.519,32.064,32.132V242.915z M249.198,130.527h-21.975
			c2.119,6.688,3.258,14.028,3.258,21.368c0,41.76-34.833,75.525-77.809,75.525c-42.809,0-77.643-33.766-77.643-75.525
			c0-7.34,1.14-14.681,3.258-21.368H55.334v105.702c0,5.545,4.397,9.949,9.929,9.949H239.27c5.534,0,9.929-4.404,9.929-9.949
			V130.527z M152.673,100.513c-27.671,0-50.132,21.858-50.132,48.773c0,26.917,22.461,48.773,50.132,48.773
			c27.834,0,50.297-21.856,50.297-48.773C202.97,122.371,180.507,100.513,152.673,100.513z M249.198,63.651
			c0-6.202-5.045-11.257-11.229-11.257h-28.322c-6.188,0-11.233,5.056-11.233,11.257v26.912c0,6.199,5.045,11.255,11.233,11.255
			h28.322c6.185,0,11.229-5.057,11.229-11.255V63.651z"/>
	</g>
</g>
</svg>
