<?xml version="1.0" encoding="utf-8"?>
<!-- Generator: Adobe Illustrator 16.0.0, SVG Export Plug-In . SVG Version: 6.00 Build 0)  -->
<!DOCTYPE svg PUBLIC "-//W3C//DTD SVG 1.1//EN" "http://www.w3.org/Graphics/SVG/1.1/DTD/svg11.dtd">
<svg version="1.1" id="Layer_1" xmlns="http://www.w3.org/2000/svg" xmlns:xlink="http://www.w3.org/1999/xlink" x="0px" y="0px"
	 width="300px" height="300px" viewBox="0 0 300 300" enable-background="new 0 0 300 300" xml:space="preserve">
<path fill="#077786" d="M300,261.523C300,282.617,282.617,300,261.525,300H38.477C17.383,300,0,282.617,0,261.523V38.474
	C0,17.383,17.383,0,38.477,0h223.048C282.617,0,300,17.383,300,38.474V261.523z M266.016,126.953h-26.367
	c2.542,8.008,3.909,16.797,3.909,25.586c0,50-41.797,90.43-93.363,90.43c-51.366,0-93.164-40.43-93.164-90.43
	c0-8.789,1.368-17.578,3.91-25.586H33.398v126.562c0,6.641,5.276,11.914,11.914,11.914h208.79c6.641,0,11.914-5.273,11.914-11.914
	V126.953z M150.195,91.015c-33.202,0-60.154,26.172-60.154,58.399c0,32.23,26.952,58.398,60.154,58.398
	c33.398,0,60.352-26.168,60.352-58.398C210.547,117.188,183.593,91.015,150.195,91.015z M266.016,46.878
	c0-7.425-6.055-13.479-13.474-13.479h-33.984c-7.425,0-13.479,6.054-13.479,13.479v32.224c0,7.422,6.055,13.477,13.479,13.477
	h33.984c7.419,0,13.474-6.054,13.474-13.477V46.878z"/>
</svg>
