<?xml version="1.0" encoding="utf-8"?>
<!-- Generator: Adobe Illustrator 16.0.0, SVG Export Plug-In . SVG Version: 6.00 Build 0)  -->
<!DOCTYPE svg PUBLIC "-//W3C//DTD SVG 1.1//EN" "http://www.w3.org/Graphics/SVG/1.1/DTD/svg11.dtd">
<svg version="1.1" id="Layer_1" xmlns="http://www.w3.org/2000/svg" xmlns:xlink="http://www.w3.org/1999/xlink" x="0px" y="0px"
	 width="300px" height="300px" viewBox="0 0 300 300" enable-background="new 0 0 300 300" xml:space="preserve">
<path fill="#077786" d="M300,55.834C300,24.771,274.726,0,243.616,0H55.855C24.744,0-1,24.771-1,55.834v187.479
	C-1,274.377,24.744,300,55.855,300h187.761C274.726,300,300,274.377,300,243.313V55.834z M244.086,129.293
	c-0.103,0.156-0.242,0.298-0.306,0.468c-0.724,1.793-2.038,2.891-3.918,3.301c-2.814,0.61-5.637,1.203-8.447,1.809
	c-14.463,3.084-28.925,6.168-43.382,9.254c-2.399,0.513-4.075,1.894-4.899,4.207c-0.742,2.08-0.438,4.057,0.821,5.88
	c0.123,0.177,0.264,0.338,0.396,0.506c10.043,12.886,20.09,25.765,30.136,38.65c4.904,6.288,9.813,12.571,14.721,18.854
	c1.475,1.89,2.294,4.016,2.332,6.425c0.062,3.352-1.167,6.152-3.661,8.396c-0.211,0.183-0.432,0.359-0.651,0.527
	c-6.125,4.768-12.256,9.526-18.381,14.296c-1.761,1.373-3.725,2.217-5.963,2.359c-3.712,0.232-6.771-1.086-9.181-3.911
	c-0.154-0.178-0.294-0.37-0.438-0.561c-14.896-19.1-29.796-38.2-44.687-57.307c-0.909-1.169-2.005-2.053-3.443-2.474
	c-2.948-0.874-6.09,0.401-7.529,3.125c-0.795,1.491-1.518,3.032-2.265,4.55c-7.082,14.343-14.164,28.68-21.245,43.021
	c-0.491,1.003-1.141,1.866-2.105,2.46c-0.708,0.439-1.482,0.682-2.303,0.776c-0.147,0.014-0.283,0.052-0.422,0.092
	c-0.514-0.064-1.027-0.132-1.539-0.193c-0.093-0.051-0.181-0.114-0.279-0.149c-1.985-0.672-3.198-2.045-3.606-4.089
	c-0.591-2.947-1.156-5.896-1.728-8.846c-3.548-18.268-7.098-36.532-10.648-54.797c-4.336-22.309-8.669-44.619-13.004-66.931
	c-2.38-12.263-4.764-24.522-7.139-36.789c-0.112-0.566-0.112-1.146-0.166-1.724c-0.012-0.078-0.052-0.151-0.083-0.231
	c0.125-0.982,0.246-1.963,0.366-2.941c0.122-0.339,0.218-0.687,0.36-1.017c1.824-4.284,5.076-6.573,9.711-6.942
	c0.183-0.012,0.374-0.046,0.562-0.075c0.718,0.09,1.449,0.18,2.176,0.272c0.256,0.098,0.523,0.182,0.775,0.292
	c1.491,0.658,2.997,1.292,4.471,1.988c18.655,8.741,37.311,17.492,55.962,26.251c15.851,7.437,31.707,14.876,47.556,22.314
	c15.893,7.458,31.782,14.918,47.676,22.376c0.332,0.151,0.66,0.317,0.972,0.502c1.378,0.863,2.166,2.116,2.434,3.706
	c0.03,0.226,0.124,0.435,0.196,0.658C244.221,128.186,244.154,128.742,244.086,129.293z"/>
</svg>
