<?xml version="1.0" encoding="utf-8"?>
<!-- Generator: Adobe Illustrator 16.0.0, SVG Export Plug-In . SVG Version: 6.00 Build 0)  -->
<!DOCTYPE svg PUBLIC "-//W3C//DTD SVG 1.1//EN" "http://www.w3.org/Graphics/SVG/1.1/DTD/svg11.dtd">
<svg version="1.1" id="Layer_1" xmlns="http://www.w3.org/2000/svg" xmlns:xlink="http://www.w3.org/1999/xlink" x="0px" y="0px"
	 width="300px" height="300px" viewBox="0 0 300 300" enable-background="new 0 0 300 300" xml:space="preserve">
<path fill="#077786" d="M300,56.25C300,25.184,274.816,0,243.75,0H56.25C25.185,0,0,25.184,0,56.25v187.5
	C0,274.815,25.185,300,56.25,300h187.5c31.066,0,56.25-25.185,56.25-56.25V56.25z M267.356,215.271
	c-2.098,2.376-5.013,4.504-7.981,5.532c-6.4,2.214-13.036,3.811-19.657,5.302c-2.161,0.486-3.072,1.377-3.463,3.378
	c-0.427,2.187-1.033,4.34-1.591,6.505c-1.207,4.651-3.224,6.151-8.064,5.698c-4.131-0.388-8.235-1.035-12.354-1.519
	c-9.946-1.166-18.883,1.168-27.101,7.066c-5.591,4.021-11.33,8.174-17.604,10.862c-16.669,7.135-32.834,5.294-48.001-4.717
	c-2.843-1.875-5.742-3.694-8.409-5.802c-9.679-7.656-20.686-8.781-32.368-6.868c-2.517,0.415-5.026,0.934-7.566,1.175
	c-4.553,0.433-7.34-1.143-7.809-5.544c-0.797-7.395-4.017-11.079-11.795-11.598c-4.633-0.305-9.255-2.338-13.657-4.151
	c-2.665-1.099-5.306-2.884-7.228-5.019c-3.757-4.175-1.897-8.735,3.42-10.434c5.938-1.902,12.1-3.638,17.471-6.673
	c13.839-7.822,22.972-20.029,29.371-34.348c2.143-4.796,1.077-7.939-3.497-10.48c-2.946-1.638-6.284-2.557-9.36-3.978
	c-3.649-1.677-7.49-3.16-10.756-5.427c-6.709-4.662-5.769-12.421,1.579-15.937c4.024-1.925,7.928-1.872,11.997-0.122
	c3.924,1.689,7.953,3.167,12.498,1.49c-0.327-9.91-1.147-19.593-0.809-29.242c0.259-7.474,0.768-15.327,3.265-22.255
	c6.05-16.812,17.776-28.853,34.651-35.316c19.263-7.372,38.798-7.53,57.47,1.146c23.09,10.733,35.373,29.294,35.362,55.173
	c-0.009,9.042-0.649,18.083-0.989,27.127c-0.039,1.049-0.007,2.1-0.007,3.33c3.933,1.568,7.541,0.132,11.009-1.337
	c4.805-2.035,9.396-2.291,14.096,0.261c6.621,3.601,7.607,10.711,1.599,15.286c-3.229,2.461-7.211,3.977-10.952,5.718
	c-3.069,1.431-6.435,2.282-9.39,3.904c-4.955,2.712-5.951,5.808-3.747,10.911c3.358,7.772,7.965,14.777,13.584,21.123
	c9.023,10.189,19.922,17.101,33.42,19.813C269.132,206.338,270.868,211.283,267.356,215.271z"/>
</svg>
