<?xml version="1.0" encoding="utf-8"?>
<!-- Generator: Adobe Illustrator 16.0.0, SVG Export Plug-In . SVG Version: 6.00 Build 0)  -->
<!DOCTYPE svg PUBLIC "-//W3C//DTD SVG 1.1//EN" "http://www.w3.org/Graphics/SVG/1.1/DTD/svg11.dtd">
<svg version="1.1" id="Layer_1" xmlns="http://www.w3.org/2000/svg" xmlns:xlink="http://www.w3.org/1999/xlink" x="0px" y="0px"
	 width="300px" height="300px" viewBox="0 0 300 300" enable-background="new 0 0 300 300" xml:space="preserve">
<path fill="#077786" d="M300,243.75c0,31.055-25.191,56.25-56.25,56.25H56.25C25.195,300,0,274.805,0,243.75V56.25
	C0,25.195,25.195,0,56.25,0h187.5C274.809,0,300,25.195,300,56.25V243.75z M226.367,100.781
	c8.594-5.079,15.043-13.282,18.164-22.852c-8.006,4.688-16.797,8.203-26.174,9.964C210.941,79.882,200.195,75,188.475,75
	c-22.654,0-41.013,18.357-41.013,41.016c0,3.127,0.198,6.445,0.978,9.378c-34.179-1.761-64.456-17.972-84.766-42.971
	c-3.516,6.051-5.663,13.28-5.663,20.7c0,14.26,6.637,26.761,17.77,34.182c-6.835-0.198-13.28-2.147-19.531-5.08c0,0,0,0.198,0,0.393
	c0,19.922,15.041,36.526,33.791,40.235c-3.516,0.977-6.249,1.562-9.962,1.562c-2.537,0-5.079-0.391-7.617-0.781
	c5.273,16.208,20.314,28.127,38.278,28.516c-14.06,10.938-31.638,17.575-50.974,17.575c-3.321,0-6.643-0.192-9.766-0.583
	c18.164,11.523,39.649,18.359,62.893,18.359c75.389,0,116.799-62.5,116.799-116.797c0-1.758,0-3.516-0.201-5.273
	c8.01-5.665,15.041-12.891,20.51-21.287C242.578,97.46,234.766,99.606,226.367,100.781z"/>
</svg>
